<svg width="17" height="18" viewBox="0 0 17 18" fill="none" xmlns="http://www.w3.org/2000/svg">
<path d="M12.6395 0.195186C12.7944 0.209919 12.8613 0.398073 12.7512 0.508138L5.05755 8.2018C4.97042 8.28893 4.90808 8.3977 4.87694 8.51693L3.95223 12.0571C3.89 12.2953 3.95875 12.5487 4.13285 12.7228C4.30694 12.8969 4.5603 12.9656 4.79852 12.9034L8.3387 11.9787C8.45792 11.9475 8.56669 11.8852 8.65382 11.7981L16.4564 3.99545C16.5659 3.88598 16.7531 3.95147 16.7692 4.10544C17.0943 7.20245 17.0759 10.3264 16.7141 13.4204C16.508 15.182 15.0921 16.5651 13.3367 16.7613C10.1482 17.1177 6.85184 17.1177 3.66334 16.7613C1.90787 16.5651 0.491967 15.182 0.28593 13.4204C-0.0953099 10.1608 -0.09531 6.86785 0.28593 3.60825C0.491967 1.84663 1.90787 0.463471 3.66334 0.267272C6.61999 -0.0631777 9.66934 -0.0872063 12.6395 0.195186Z" fill="black"/>
<path d="M13.8849 1.33606C13.9751 1.24596 14.1213 1.24596 14.2116 1.33606L15.5194 2.64393C15.6097 2.73421 15.6097 2.88058 15.5194 2.97086L7.85044 10.6399C7.82155 10.6687 7.78489 10.6896 7.74539 10.7001L5.97512 11.1625C5.80438 11.2069 5.64889 11.051 5.69321 10.8803L6.15556 9.11023C6.16594 9.07049 6.18673 9.03423 6.21577 9.00519L13.8849 1.33606Z" fill="black"/>
</svg>
