<svg width="22" height="22" viewBox="0 0 22 22" fill="none" xmlns="http://www.w3.org/2000/svg">
<path d="M7.75012 11.0001C7.75012 9.2052 9.2052 7.75013 11.0001 7.75013C12.795 7.75013 14.2501 9.2052 14.2501 11.0001C14.2501 12.7951 12.795 14.2501 11.0001 14.2501C9.2052 14.2501 7.75012 12.7951 7.75012 11.0001Z" fill="#555555"/>
<path fill-rule="evenodd" clip-rule="evenodd" d="M10.4608 0.838644C10.7557 0.533603 11.2446 0.533603 11.5394 0.838644L14.1117 3.50013H17.7501C18.1643 3.50013 18.5001 3.83592 18.5001 4.25013V7.88853L21.1616 10.4608C21.4667 10.7557 21.4667 11.2446 21.1616 11.5394L18.5001 14.1117V17.7501C18.5001 18.1643 18.1643 18.5001 17.7501 18.5001H14.1117L11.5394 21.1616C11.2446 21.4667 10.7557 21.4667 10.4608 21.1616L7.88852 18.5001H4.25013C3.83592 18.5001 3.50013 18.1643 3.50013 17.7501V14.1117L0.838644 11.5394C0.533603 11.2446 0.533603 10.7557 0.838643 10.4608L3.50013 7.88852V4.25013C3.50013 3.83592 3.83592 3.50013 4.25013 3.50013H7.88852L10.4608 0.838644ZM11.0001 6.25013C8.37677 6.25013 6.25012 8.37678 6.25012 11.0001C6.25012 13.6235 8.37677 15.7501 11.0001 15.7501C13.6235 15.7501 15.7501 13.6235 15.7501 11.0001C15.7501 8.37678 13.6235 6.25013 11.0001 6.25013Z" fill="#555555"/>
</svg>
