<svg width="17" height="4" viewBox="0 0 17 4" fill="none" xmlns="http://www.w3.org/2000/svg">
<path d="M1.7 3.86377C0.761116 3.86377 0 2.99886 0 1.93195C0 0.865037 0.761116 0.000132561 1.7 0.000132561C2.63888 0.000132561 3.4 0.865037 3.4 1.93195C3.4 2.99886 2.63888 3.86377 1.7 3.86377Z" fill="black"/>
<path d="M6.8 1.93195C6.8 2.99886 7.56112 3.86377 8.5 3.86377C9.43888 3.86377 10.2 2.99886 10.2 1.93195C10.2 0.865037 9.43888 0.000132561 8.5 0.000132561C7.56112 0.000132561 6.8 0.865037 6.8 1.93195Z" fill="black"/>
<path d="M13.6 1.93195C13.6 2.99886 14.3611 3.86377 15.3 3.86377C16.2389 3.86377 17 2.99886 17 1.93195C17 0.865037 16.2389 0.000132561 15.3 0.000132561C14.3611 0.000132561 13.6 0.865037 13.6 1.93195Z" fill="black"/>
</svg>
